<?xml version="1.0" encoding="utf-8"?>
<!-- Generator: Adobe Illustrator 18.1.1, SVG Export Plug-In . SVG Version: 6.00 Build 0)  -->
<svg version="1.1" id="ad_x5F_migme_x5F_explore_x5F_colour"
	 xmlns="http://www.w3.org/2000/svg" xmlns:xlink="http://www.w3.org/1999/xlink" x="0px" y="0px" viewBox="0 0 30 15"
	 enable-background="new 0 0 30 15" xml:space="preserve">
<g>
	<g>
		<path fill="#F59429" d="M29.234,0.729L16.702,1.896c0,0-0.828,0.077-0.828,0.91v7.476c0,0,0,0.832,0.832,0.846l2.414,0.038
			L17.749,15l5.98-3.733l-0.071-0.028l4.805,0.077c0,0,0.832,0.013,0.896-0.817l0.64-9.017C29.999,1.482,30.063,0.652,29.234,0.729"
			/>
		<path fill="#BD4F29" d="M16.729,10.811V1.567c0-0.833-0.832-0.871-0.832-0.871L0.837,0.001C0.006-0.038,0,0.795,0,0.795
			l0.681,11.021c-0.005,0.833,0.826,0.783,0.826,0.783l7.75-0.488L15.866,15l-1.635-3.202l1.667-0.105
			C16.729,11.643,16.729,10.811,16.729,10.811"/>
	</g>
	<path fill="#FFFFFF" d="M15.428,4.062h-0.819c0,0-0.167,0-0.181,0.167l-0.03,0.34h-0.017c-0.219-0.349-0.586-0.603-1.172-0.603
		c-1.049,0-1.94,0.874-1.94,2.247c0,1.232,0.751,2.089,1.809,2.089c0.49,0,0.901-0.201,1.154-0.559h0.009c0,0,0.009,0,0.009,0.059
		v0.22c0,0.787-0.481,1.128-1.111,1.128c-0.498,0-0.97-0.166-1.241-0.323l-0.22,0.843c0,0-0.042,0.162,0.103,0.245
		c0.239,0.135,0.834,0.249,1.393,0.249c0.63,0,1.268-0.122,1.74-0.524c0.481-0.429,0.647-1.102,0.647-1.924V5.33
		c0-0.638,0.017-0.997,0.026-1.132C15.587,4.198,15.596,4.062,15.428,4.062 M14.232,6.431c0,0.114-0.009,0.254-0.044,0.35
		c-0.087,0.315-0.358,0.542-0.699,0.542c-0.559,0-0.874-0.498-0.874-1.136c0-0.779,0.393-1.216,0.874-1.216
		c0.367,0,0.621,0.236,0.717,0.586c0.017,0.07,0.026,0.158,0.026,0.245V6.431z M9.404,8.337c-0.168,0-0.168-0.167-0.168-0.167V4.23
		c0-0.168,0.168-0.168,0.168-0.168h0.994c0.167,0,0.167,0.168,0.167,0.168v3.94c0,0.167-0.167,0.167-0.167,0.167H9.404z M9.91,3.538
		c0.415,0,0.75-0.336,0.75-0.75c0-0.414-0.335-0.75-0.75-0.75c-0.414,0-0.75,0.336-0.75,0.75C9.16,3.202,9.496,3.538,9.91,3.538
		 M1.84,8.17c0,0,0,0.167,0.167,0.167h0.959c0,0,0.168,0,0.168-0.167V5.846c0-0.105,0.009-0.228,0.052-0.333
		c0.079-0.218,0.28-0.48,0.621-0.48c0.419,0,0.612,0.367,0.612,0.909V8.17c0,0,0,0.167,0.167,0.167h0.959c0,0,0.168,0,0.168-0.167
		V5.837c0-0.105,0.017-0.245,0.052-0.341c0.087-0.254,0.306-0.463,0.612-0.463c0.428,0,0.629,0.358,0.629,0.979V8.17
		c0,0,0,0.167,0.168,0.167h0.959c0,0,0.167,0,0.167-0.167V5.819c0-1.276-0.62-1.853-1.442-1.853c-0.315,0-0.577,0.07-0.813,0.21
		C5.844,4.298,5.651,4.473,5.494,4.692H5.477C5.293,4.246,4.856,3.966,4.305,3.966c-0.734,0-1.11,0.402-1.294,0.673H2.998
		c0,0-0.013,0-0.025-0.117L2.942,4.229c0,0-0.018-0.167-0.186-0.167H1.972c0,0-0.167,0-0.159,0.168
		C1.822,4.438,1.84,4.893,1.84,5.426V8.17z M28.769,6.624h-2.586c0,0-0.168,0-0.155,0.167c0.031,0.383,0.573,0.646,1.194,0.646
		c0.454,0,0.821-0.062,1.18-0.175l0.143,0.736c0,0,0.031,0.164-0.124,0.226c-0.282,0.113-0.815,0.2-1.392,0.2
		c-1.451,0-2.281-0.839-2.281-2.176c0-1.084,0.673-2.282,2.159-2.282c1.381,0,1.906,1.075,1.906,2.133
		C28.813,6.326,28.786,6.527,28.769,6.624 M26.828,4.849c-0.559,0-0.787,0.507-0.822,0.866h1.407c0,0,0.167,0,0.167-0.162
		C27.58,5.391,27.44,4.849,26.828,4.849 M17.718,5.426c0-0.533-0.018-0.988-0.027-1.196c-0.008-0.168,0.159-0.168,0.159-0.168h0.784
		c0.168,0,0.186,0.167,0.186,0.167l0.031,0.293c0.012,0.117,0.025,0.117,0.025,0.117h0.013c0.184-0.271,0.56-0.673,1.294-0.673
		c0.551,0,0.988,0.28,1.172,0.726h0.017c0.157-0.219,0.35-0.394,0.551-0.516c0.236-0.14,0.498-0.21,0.813-0.21
		c0.822,0,1.442,0.577,1.442,1.853V8.17c0,0.167-0.167,0.167-0.167,0.167h-0.959c-0.168,0-0.168-0.167-0.168-0.167V6.012
		c0-0.621-0.201-0.979-0.629-0.979c-0.306,0-0.525,0.209-0.612,0.463c-0.035,0.096-0.052,0.236-0.052,0.341V8.17
		c0,0.167-0.168,0.167-0.168,0.167h-0.959c-0.167,0-0.167-0.167-0.167-0.167V5.942c0-0.542-0.193-0.909-0.612-0.909
		c-0.341,0-0.542,0.262-0.621,0.48c-0.044,0.105-0.052,0.228-0.052,0.333V8.17c0,0.167-0.168,0.167-0.168,0.167h-0.959
		c-0.167,0-0.167-0.167-0.167-0.167V5.426z"/>
</g>
</svg>
