<?xml version="1.0" encoding="utf-8"?>
<!-- Generator: Adobe Illustrator 18.1.1, SVG Export Plug-In . SVG Version: 6.00 Build 0)  -->
<!DOCTYPE svg PUBLIC "-//W3C//DTD SVG 1.1//EN" "http://www.w3.org/Graphics/SVG/1.1/DTD/svg11.dtd">
<svg version="1.1" id="ad_x5F_settinglarge" xmlns="http://www.w3.org/2000/svg" xmlns:xlink="http://www.w3.org/1999/xlink"
	 x="0px" y="0px" viewBox="0 0 200 200" enable-background="new 0 0 200 200" xml:space="preserve">
<g>
	<path d="M101.6,62.7c-20.4,0-36.4,16-36.4,36.4c0,20.4,16,36.4,36.4,36.4c0.5,0,0.9,0,1.4,0c0,0,0,0,0,0c9.2,0,18-3.8,24.7-10.8
		c6.7-7,10.4-16.1,10.4-25.7C138.1,78.7,122.1,62.7,101.6,62.7z M124.6,100c0,13.1-10.7,23.7-23.7,23.8c-13.6-0.8-23.8-11-23.8-23.8
		c0-13.1,10.7-23.8,23.7-23.8C113.9,76.2,124.6,86.9,124.6,100z"/>
	<path d="M182.4,80.7l-13.7-3c-0.7-2.9-1.7-5.4-2.8-8.1c-0.3-0.6-0.5-1.3-0.8-2l7.7-13.1c3.7-5.5,5.2-13.6-0.2-18.2l-8.1-8.1
		c-2.5-2.5-5.9-3.9-9.6-3.9c-3.2,0-6.6,1-9.3,2.9l-12.3,7.7c-1.5-0.7-3.1-1.4-4.6-2.1c-1.6-0.7-3.2-1.4-4.6-2.1L121,16.8
		c-0.9-6.2-6.2-12.6-13.6-12.6H95.9c-7.5,0-11.9,6.5-12.8,12.5l-4.6,14.7c-1.8,0.7-3.5,1.5-5.1,2.2c-1.6,0.7-3.2,1.4-5,2.1L55.3,28
		c-2.4-1.9-5.9-3-9.5-3c-3.5,0-6.6,1.1-8.7,3.2L29,36.3c-4.6,4.6-4.7,11.4-0.2,18.1l8.4,13.8c-2.2,3.1-3.6,6-4.3,9.4l-14.4,3
		C12,81.6,5,87.1,5,94.3v11.4c0,7.1,6.7,11.8,13.4,12.8l14.6,3.8c0.8,2.9,2.2,5.7,3.6,8.5l-7.7,13.9c-3.7,5.5-5.1,13.5,0.3,18.1
		l8.1,8.1c2.5,2.5,5.9,3.9,9.6,3.9c3.2,0,6.6-1,9.3-2.9l13.1-8.5c2.8,1.4,5.8,2.8,9.3,4.3l3.9,14c2.5,8.7,6.9,13.3,12.8,13.3h11.4
		c7.2,0,12.7-7,13.6-13.4l3.1-14.5c3.4-0.8,6.3-2.2,9.4-4.3l12.1,7.6c2.8,1.9,6.1,2.9,9.4,2.9c3.7,0,7-1.3,9.6-3.9l8.1-8.1
		c4.6-4.6,4.7-11.4,0.2-18l-7.7-13.1c1.4-2.8,2.8-5.6,3.6-8.5l13.6-3.8c7.7-0.1,13.5-5.2,13.5-12V94.3
		C195,86.9,188.6,81.6,182.4,80.7z M156.4,117.4l0,0.2c-0.4,1.5-0.9,2.8-1.6,4.3c-0.6,1.4-1.2,2.8-1.6,4.5l-3.6,6.3l11.8,20.3
		l0.2,0.3c0.2,0.2,0.3,0.8,0.4,1.6l-7.1,7.1c-0.1,0-0.1,0-0.1-0.1c-0.4-0.2-0.8-0.4-1.4-0.5l-19.9-13.3l-7.3,3.6
		c-1.6,0.8-3,1.4-4.4,2c-1.4,0.6-2.8,1.2-4.5,2l-7.2,2.7l-3.4,22.8l0,0.2c0,0.2-0.2,0.7-0.4,1h-9.3c-0.2-0.5-0.3-1.2-0.3-1.8
		l-6-23.2l-7.4-1.8c-3.1-0.8-6.3-2.4-9.4-3.9l-7.2-4.5l-20.3,13.5l-0.2,0.2c-0.3,0.3-0.5,0.3-0.9,0.4l-7-6.3c0,0,0-0.1,0-0.1
		c0.2-0.4,0.4-0.9,0.5-1.4l12.5-20.8l-3.7-6.4l-0.1-0.1c-1.2-1.8-1.9-4.2-2.6-6.3c-0.2-0.5-0.3-1-0.5-1.6l-2.7-7.2l-22.9-6.8h-0.2
		c-0.2,0-0.3,0-0.3,0c0,0-0.1,0-0.1-0.1c-0.4-0.2-0.7-0.5-1.4-0.6v-8.7l0,0c0.7-0.3,1.5-0.6,1.8-0.7l24-5.1l1.8-7.3
		c0.8-2.3,2.4-5.6,3.9-8.6l3.7-6.5L38.6,45.5l-0.2-0.2c-0.1-0.1-0.3-0.5-0.3-0.9l7-7c0,0,0.1,0,0.1,0.1c0.4,0.2,0.8,0.4,1.4,0.5
		l20.7,13.3l7.5-3.7l0.2-0.2c1.4-1.4,4.5-2.9,7.5-3.7l7.4-2.8l5.9-22.7l0-0.4c0-0.4,0.1-0.7,0.2-1h9.9c0,0.1,0.1,0.1,0.1,0.2
		l5.1,23.9l7.3,2.7l0.2,0c2.7,0.7,5.8,2.1,8.5,3.9l7.4,3.7l20.2-12.6l0.3-0.2c0.3-0.3,0.5-0.3,0.9-0.4l7,6.3c0,0,0,0.1,0,0.1
		c-0.2,0.4-0.4,0.8-0.5,1.4l-12.5,20l3.6,6.4c1.6,3.2,3.2,6.4,4,8.8l2.7,7.2l22.3,5c0.4,0.4,0.9,0.9,0.9,1.1v9.5
		c-0.1,0.1-0.3,0.1-0.4,0.2c-0.2,0.1-0.5,0.2-0.6,0.3l-23.1,5.9L156.4,117.4z"/>
</g>
</svg>
