<?xml version="1.0" encoding="utf-8"?>
<!DOCTYPE svg PUBLIC "-//W3C//DTD SVG 1.1//EN" "http://www.w3.org/Graphics/SVG/1.1/DTD/svg11.dtd">
<svg version="1.1" id="ad_x5F_closesemitrans_x5F_grey"
	 xmlns="http://www.w3.org/2000/svg" xmlns:xlink="http://www.w3.org/1999/xlink" x="0px" y="0px" width="20px" height="20px"
	 viewBox="0 0 20 20" enable-background="new 0 0 20 20" xml:space="preserve">
<circle fill="#999999" cx="10" cy="10.1" r="8.8"/>
<path fill="#FFFFFF" d="M13.4,12.5L10.8,10l2.5-2.5c0.2-0.2,0.2-0.6,0-0.8c-0.2-0.2-0.6-0.2-0.8,0L10,9.2L7.5,6.6
	c-0.2-0.2-0.6-0.2-0.8,0c-0.2,0.2-0.2,0.6,0,0.8L9.2,10l-2.5,2.5c-0.2,0.2-0.2,0.6,0,0.8c0.2,0.2,0.6,0.2,0.8,0l2.5-2.5l2.5,2.5
	c0.2,0.2,0.6,0.2,0.8,0C13.6,13.1,13.6,12.8,13.4,12.5 M18.3,10c0,4.6-3.7,8.3-8.3,8.3c-4.6,0-8.3-3.7-8.3-8.3
	c0-4.6,3.7-8.3,8.3-8.3C14.6,1.7,18.3,5.4,18.3,10 M19.5,10c0-5.2-4.3-9.5-9.5-9.5c-5.2,0-9.5,4.3-9.5,9.5c0,5.2,4.3,9.5,9.5,9.5
	C15.2,19.5,19.5,15.2,19.5,10"/>
</svg>
